<svg id="Group_5" data-name="Group 5" xmlns="http://www.w3.org/2000/svg" width="1920" height="674" viewBox="0 0 1920 674">
  <g id="Group_4" data-name="Group 4">
    <rect id="Rectangle_1" data-name="Rectangle 1" width="1920" height="674" fill="#533964"/>
    <g id="euro-currency-symbol" transform="matrix(0.788, -0.616, 0.616, 0.788, 127.401, 266.946)" opacity="0.63">
      <path id="Path_1" data-name="Path 1" d="M73.657,54.609a20.291,20.291,0,0,1-14.688,6.646c-8.847,0-16.507-6.213-20.112-15.193H63.43a3.859,3.859,0,0,0,0-7.717H36.9a32.288,32.288,0,0,1-.235-3.859,31.9,31.9,0,0,1,.3-4.341H63.43a3.859,3.859,0,0,0,0-7.717H39.061C42.744,13.71,50.282,7.716,58.968,7.716a20.293,20.293,0,0,1,14.688,6.646,3.859,3.859,0,0,0,5.594-5.316A27.926,27.926,0,0,0,58.969,0C46.106,0,35.11,9.343,30.843,22.428H20.5a3.859,3.859,0,0,0,0,7.717h8.687a39.719,39.719,0,0,0-.246,4.341c0,1.306.068,2.591.193,3.859H20.5a3.859,3.859,0,1,0,0,7.717H30.689C34.84,59.4,45.947,68.973,58.968,68.973a27.926,27.926,0,0,0,20.28-9.046,3.859,3.859,0,0,0-5.592-5.319Z" fill="#fff"/>
    </g>
    <g id="dollar-currency-symbol" transform="matrix(0.799, 0.602, -0.602, 0.799, 1720.981, 331.331)" opacity="0.6">
      <path id="Path_4" data-name="Path 4" d="M239.622,46.093c-6.206-6.1-13.515-9.2-21.71-9.2H212.6V6.651a6.652,6.652,0,0,0-13.3,0V36.9h-5.767a30.059,30.059,0,0,0-21.725,9.166,29.645,29.645,0,0,0-9.305,21.7V85.851A28.769,28.769,0,0,0,175,110.11a6.644,6.644,0,0,0,2.685,1.135l21.61,3.911V168.5h-5.851a16.9,16.9,0,0,1-12.329-5.285,16.578,16.578,0,0,1-5.312-12.278V140.219a6.652,6.652,0,0,0-13.3,0v10.721a29.661,29.661,0,0,0,9.265,21.74,29.979,29.979,0,0,0,21.682,9.126H199.3v24.4a6.652,6.652,0,0,0,13.3,0v-24.4h3.228a30.222,30.222,0,0,0,21.7-9.142,29.593,29.593,0,0,0,9.416-21.807V132.763a28.727,28.727,0,0,0-12.164-23.971,6.746,6.746,0,0,0-1.415-.827,6.527,6.527,0,0,0-1.572-.455l-19.19-3.472V50.2h5.308A17.079,17.079,0,0,1,230.3,55.579a16.589,16.589,0,0,1,5.425,12.262V78.478a6.653,6.653,0,0,0,13.305,0V67.841A29.659,29.659,0,0,0,239.622,46.093ZM227.955,120.34a15.14,15.14,0,0,1,5.687,12.423v18.094a16.536,16.536,0,0,1-5.413,12.292,17.136,17.136,0,0,1-12.4,5.353H212.6V117.562ZM199.3,101.634l-17.669-3.195a15.2,15.2,0,0,1-5.823-12.587V67.757a16.574,16.574,0,0,1,5.352-12.235A16.962,16.962,0,0,1,193.531,50.2H199.3Z" fill="#fff"/>
    </g>
    <g id="Group_2" data-name="Group 2" transform="translate(-485 59)" opacity="0.6">
      <g id="Ellipse_1" data-name="Ellipse 1" transform="translate(526 429)" fill="none" stroke="#efefef" stroke-width="10">
        <circle cx="73" cy="73" r="73" stroke="none"/>
        <circle cx="73" cy="73" r="68" fill="none"/>
      </g>
      <text id="DZD" transform="translate(599 521)" fill="#fff" font-size="45" font-family="SegoeUI-Bold, Segoe UI" font-weight="700"><tspan x="-46.384" y="0">DZD</tspan></text>
    </g>
    <g id="qatar-riyal" transform="translate(308.153 264.571)" opacity="0.6">
      <g id="Group_3" data-name="Group 3" transform="translate(0 0)">
        <path id="Path_6" data-name="Path 6" d="M255.824,173.628h.005q4.317,0,8.669-.026l1.162,0q5.015-.021,10.106-.028a1.549,1.549,0,0,0,1.54-1.437c1.647-23.721-.21-33.743-7.359-39.71a1.559,1.559,0,0,0-.985-.354l-.177.01a1.528,1.528,0,0,0-1.065.614c-4.02,5.418-3.906,10.319.374,15.882,1.556,2.02,2.156,4.963,2.87,8.439.221,1.082.45,2.194.718,3.333-2.485,0-4.9-.021-7.333-.036l-.637,0c-2.56-.014-5.042-.033-7.474-.033-4.335,0-7.887.052-11.175.16l-.508.01c-4.277,0-6.149-1.55-6.465-5.347-.414-5.019-.889-10.912-1.338-16.54-.586-7.337-1.138-14.234-1.489-18.162-.608-6.806-4.381-17.884-4.815-19.141a1.543,1.543,0,0,0-2.915.015c-.337.992-.811,2.046-1.272,3.069-1.116,2.484-2.269,5.049-2.016,7.673.552,5.642,1.575,11.3,2.583,16.869l.035.189c.629,3.477,1.281,7.077,1.8,10.615.517,3.556.9,7.308,1.242,10.619.429,4.193.872,8.527,1.58,12.832,1.08,6.573,4.764,10.256,10.376,10.369C245.987,173.589,250.426,173.628,255.824,173.628Z" transform="translate(-158.871 -90.957)" fill="#fff"/>
        <path id="Path_7" data-name="Path 7" d="M287.158,372.182l6.122,6.983a1.455,1.455,0,0,0,.985.517l.179.015a1.537,1.537,0,0,0,1.053-.417l6.652-6.211a1.537,1.537,0,0,0,.11-2.139l-6.54-7.521a1.583,1.583,0,0,0-1.164-.527,1.554,1.554,0,0,0-1.04.408l-6.716,6.2a1.482,1.482,0,0,0-.42.737l-6.079-7.2a1.585,1.585,0,0,0-1.175-.55,1.532,1.532,0,0,0-1.04.405l-6.667,6.063a1.537,1.537,0,0,0-.129,2.149l6.638,7.713a1.575,1.575,0,0,0,1.13.534h.04a1.521,1.521,0,0,0,1.037-.4l6.6-5.994A1.586,1.586,0,0,0,287.158,372.182Z" transform="translate(-191.964 -276.782)" fill="#fff"/>
        <path id="Path_8" data-name="Path 8" d="M60.6,80.292c-.315-2.415-2.092-4.558-5.432-6.545a21.2,21.2,0,0,1-3.645-3.066c-.631-.617-1.287-1.25-1.991-1.871a1.529,1.529,0,0,0-1.027-.389l-.243.017a1.537,1.537,0,0,0-1.085.748c-3.722,6.39-2.368,11.967-.8,18.426l.362,1.5c2.891,12.158,4.1,24.99,5.263,37.423l.436,4.615c.748,7.758-.185,12.918-2.935,16.24-2.865,3.459-7.884,5.347-16.277,6.122-1.448.134-2.885.153-4.092.153l-3.009-.016c-7.676-.017-13.254-2.095-16.132-6.013a7.666,7.666,0,0,1-1.762-5.484c.187-2.258,2.479-9.589,6.01-14.956a3.525,3.525,0,0,0-1.006-4.882,3.614,3.614,0,0,0-4.87.982C3.417,130.274,1.039,140.134.61,142.063a19.015,19.015,0,0,0,2.6,15.516,19.6,19.6,0,0,0,14.066,8.033,79.309,79.309,0,0,0,9.67.546c2.9,0,6.005-.124,9.5-.384,8.369-.62,14.673-3.376,18.741-8.194,4.371-5.176,6.123-12.676,5.209-22.294-.774-8.178-1.736-16.375-2.667-24.306l-.054-.469c-.676-5.78-1.375-11.743-1.99-17.62-.167-1.6.165-3.387.736-3.972C59.617,85.634,60.946,82.9,60.6,80.292Z" transform="translate(0 -68.42)" fill="#fff"/>
        <path id="Path_9" data-name="Path 9" d="M384.528,244.822l-.911-1.09c-1.771-2.28-6.334-8.1-10.466-12.816a5.905,5.905,0,0,0-8.091-.535,5.741,5.741,0,0,0-.534,8.09c3.03,3.458,6.416,7.681,8.765,10.665a16.851,16.851,0,0,1,1.078,1.343c.291.391.579.775.921,1.175,3,3.481,7.257,10.471,2.11,18.207-9.474,14.238-20.425,21.459-32.548,21.459h0c-.953,0-1.927-.045-2.9-.134a58.524,58.524,0,0,1-7.226-1.275c-.5-.11-1.04-.221-1.568-.327-.665-.134-1.311-.265-1.831-.386a2.072,2.072,0,0,0-2.36,1.33,1.548,1.548,0,0,0,1.094,1.8c2.6.73,5.352,1.731,7.777,2.613,5.505,2,11.2,4.07,16.829,4.074.446,0,.891-.017,1.34-.04,11.8-.71,19.97-9.115,28.531-21.416.207-.217,5.044-5.433,5.2-15.911S384.738,245.065,384.528,244.822Z" transform="translate(-233.077 -182.223)" fill="#fff"/>
      </g>
    </g>
    <g id="sri-lanka-rupee-currency-symbol" transform="translate(57.909 231.501)" opacity="0.6">
      <path id="Path_10" data-name="Path 10" d="M72.267,37.067H84.05a4.051,4.051,0,0,0,0-8.1H72.189A21.373,21.373,0,0,0,65.376,15.71C59.815,10.678,51.945,8.429,39.86,8.429L18.691,8.5a1.176,1.176,0,0,0-1.175,1.173V28.963H4.05a4.051,4.051,0,0,0,0,8.1H17.517V95.692a1.176,1.176,0,0,0,1.178,1.178H29.722A1.176,1.176,0,0,0,30.9,95.692V59.852H48.709L61.834,96.093a1.164,1.164,0,0,0,1.1.779H74.346a1.174,1.174,0,0,0,1.106-1.588L60.97,56.563C68.122,50.563,71.445,44.931,72.267,37.067ZM30.9,19.289l9.722-.006c7.075.08,15.256,1.968,17.722,9.682H30.9ZM41.007,49.127H30.9V37.067h27.92C57.422,44.484,50.746,49.127,41.007,49.127Zm77.017,31.824c0,11.288-8.93,18.589-22.754,18.589a33.814,33.814,0,0,1-16.656-4.072l-.835-.5a.6.6,0,0,1-.268-.7L80.849,84.1a.629.629,0,0,1,.374-.383.609.609,0,0,1,.527.069l1.315.857A24.762,24.762,0,0,0,95.5,88.405c5.681,0,9.074-2.436,9.074-6.526,0-3.885-2.332-6.052-9.235-8.6-13.216-4.716-16-12.142-16-17.552,0-10.74,8.692-18.24,21.135-18.24a30.076,30.076,0,0,1,14.691,3.723l.843.5a.6.6,0,0,1,.262.717L112.915,52.2a.6.6,0,0,1-.367.37.606.606,0,0,1-.524-.059l-1.288-.813a20.064,20.064,0,0,0-10.491-2.961c-4.524,0-7.567,2.343-7.567,5.827,0,3.252,2.13,5,9.484,7.8C113.13,66.543,118.023,72.276,118.023,80.952Z" transform="translate(-35 82.649)" fill="#fff"/>
    </g>
    <g id="yen-currency-symbol" transform="translate(1734.818 203.091)" opacity="0.6">
      <path id="Path_11" data-name="Path 11" d="M120.038,48.966A2.934,2.934,0,0,1,117.1,51.9H97.161V72.507a4.61,4.61,0,0,1-9.22,0V51.9H66.74a2.934,2.934,0,0,1,0-5.868h21.2V37.876l-.166-.226H66.74a2.933,2.933,0,0,1,0-5.867H83.423L65.308,7.357a4.61,4.61,0,1,1,7.406-5.492l19.724,26.6L111.068,2.09a4.61,4.61,0,0,1,7.531,5.32L101.38,31.783H117.1a2.933,2.933,0,1,1,0,5.867H97.236l-.075.106v8.275H117.1A2.936,2.936,0,0,1,120.038,48.966Z" transform="translate(-63.807 0)" fill="#fff"/>
    </g>
    <g id="turkey-lira-currency-symbol" transform="translate(475 271.043)" opacity="0.6">
      <path id="Path_12" data-name="Path 12" d="M122.984,92.064a6.316,6.316,0,0,0-6.761-4.838v.009l-.728.161a3.549,3.549,0,0,0-1.009.3l-.307.117a33.267,33.267,0,0,1-15.1,3.711,33.381,33.381,0,0,1-5.216-.735c-2.525-.434-5.27-.92-8.209-1.45S79.835,88.3,77.01,87.811a41.671,41.671,0,0,0-6.741-.726c-1.186,0-2.394.056-3.583.17l-5.077.479L65.081,84q.522-.558.991-1.113a28.2,28.2,0,0,0,3.832-5.713,23.653,23.653,0,0,0,1.45-3.693h19.5a4.929,4.929,0,1,0,0-9.857H72.7c0-.24.015-.474.015-.72a16.433,16.433,0,0,0-.454-3.834l-.581-2.4,19.392-.037A2.738,2.738,0,0,0,92,56.4a4.975,4.975,0,0,0-.549-9.658,2.745,2.745,0,0,0-.483-.064l-.021,0c-.063,0-.109,0-.15-.006l-.253.015H69.28l-.424-1.361c-2.228-7.16-3.361-13.21-3.361-17.979a17.552,17.552,0,0,1,1.3-6.684,17.981,17.981,0,0,1,3.558-5.556,16.1,16.1,0,0,1,5.486-3.758,18.49,18.49,0,0,1,7.216-1.361c10.763,0,16.457,5.114,17.4,15.637a1.464,1.464,0,0,1,.041.179l.038.474-.016.1a4.029,4.029,0,0,0,.2.934,6.523,6.523,0,0,0,12.957-.144h-.006l.041-.9c0-.012-.013-.12-.019-.243l0-.14A31.193,31.193,0,0,0,110.7,14.724a25.108,25.108,0,0,0-6.3-8.086,26.807,26.807,0,0,0-9.245-4.953A39.19,39.19,0,0,0,83.379,0,38.483,38.483,0,0,0,70.726,1.983a28.593,28.593,0,0,0-9.811,5.647,25.22,25.22,0,0,0-6.372,9.012A30.351,30.351,0,0,0,52.262,28.6a42.789,42.789,0,0,0,.827,7.568c.432,2.341,1.093,5.04,1.961,8.033l.72,2.486-11.056-.024a4.979,4.979,0,0,0-.045,9.911l.475.085,13.5.012.332,1.526a33.472,33.472,0,0,1,.725,5.424H45.43a4.929,4.929,0,1,0,0,9.858H59.009c-.084.425-.159.858-.258,1.259a26.379,26.379,0,0,1-2.855,7.2,22.18,22.18,0,0,1-4.553,5.449A31.667,31.667,0,0,1,45.2,91.51c-3.689,1.224-7.81,3.446-7.112,7.335a6.211,6.211,0,0,0,6.823,5.061.465.465,0,0,0,.183-.058c9.017-4.111,17.2-6.186,24.377-6.186a21.978,21.978,0,0,1,3.851.467c1.633.307,3.44.688,5.368,1.128s3.951.925,6.029,1.456,4.073,1.017,5.99,1.456,3.676.829,5.266,1.16a19.265,19.265,0,0,0,3.761.5h.283c7.246,0,14.94-3.03,15.263-3.157.712-.31,2.885-1.116,2.885-1.116A6.284,6.284,0,0,0,122.984,92.064Z" transform="translate(-233.014 165)" fill="#fff"/>
    </g>
    <g id="russia-ruble-currency-symbol" transform="translate(1388.057 320.976)" opacity="0.6">
      <path id="Path_13" data-name="Path 13" d="M21.015,33.309A16.618,16.618,0,0,0,9.793,37.254l0-1.2A1.908,1.908,0,0,0,7.889,34.14H1.954a1.908,1.908,0,0,0-1.907,1.9L0,87.551a1.908,1.908,0,0,0,1.907,1.912H8.478a1.908,1.908,0,0,0,1.907-1.907V72.383a15.9,15.9,0,0,0,9.5,2.957C28.8,75.34,38.406,68.6,38.406,53.8,38.406,41.925,31.092,33.309,21.015,33.309Zm-2.038,9.1c6.2,0,8.97,5.87,8.97,11.686,0,5.906-2.416,12.217-9.2,12.217a8.343,8.343,0,0,1-8.108-6.287,12.988,12.988,0,0,1-.257-2.305V51.453a9.32,9.32,0,0,1,.394-2.245A8.7,8.7,0,0,1,18.977,42.411Zm57.529-7.444a1.906,1.906,0,0,1,.21,1.764l-9.97,26.057c-4.519,11.9-7.939,19.2-13.069,23.644a19.637,19.637,0,0,1-9.067,4.741,1.949,1.949,0,0,1-.342.028,1.906,1.906,0,0,1-1.827-1.362l-1.662-5.589a1.9,1.9,0,0,1,1.249-2.36A15.673,15.673,0,0,0,47.19,79a18.23,18.23,0,0,0,5.078-6.72c.1-.219.289-.648.352-.86a7.962,7.962,0,0,0-.328-1.035L38.8,36.758a1.906,1.906,0,0,1,1.77-2.617h7.25a1.909,1.909,0,0,1,1.789,1.245l8.005,21.6c.2.6.409,1.2.612,1.819.2-.643.411-1.291.628-1.926L66.1,35.438a1.906,1.906,0,0,1,1.807-1.3h7.024A1.9,1.9,0,0,1,76.505,34.966Zm22.284-.826a15.81,15.81,0,0,0-9.372,3.074,18.133,18.133,0,0,1,2.025-3.926c2.31-3.312,5.926-5.188,11.723-6.081a51.237,51.237,0,0,0,7.98-1.751,1.909,1.909,0,0,0,1.255-1.691l.3-5.513a1.91,1.91,0,0,0-2.557-1.9,51.207,51.207,0,0,1-8.732,1.878c-8.137,1.386-13.366,4.284-16.9,9.333-4.075,5.329-6.057,12.329-6.057,21.4,0,16.516,7.095,26.378,18.978,26.378,11.612,0,18.827-8.137,18.827-21.242C116.257,41.974,109.4,34.14,98.789,34.14Zm-1.357,8.723c7.888,0,8.289,9.8,8.289,11.764,0,1.987-.393,11.915-8.136,11.915-6.038,0-8.291-7.867-8.291-12.821a14.111,14.111,0,0,1,1.6-6.909A6.936,6.936,0,0,1,97.432,42.863Z" transform="translate(166 6.918)" fill="#fff"/>
    </g>
  </g>
</svg>
